<?xml version="1.0" encoding="utf-8"?>
<!-- Generator: Adobe Illustrator 27.5.0, SVG Export Plug-In . SVG Version: 6.00 Build 0)  -->
<svg version="1.1" xmlns="http://www.w3.org/2000/svg" xmlns:xlink="http://www.w3.org/1999/xlink" x="0px" y="0px"
	 viewBox="0 0 1200 1200" style="enable-background:new 0 0 1200 1200;" xml:space="preserve">
<g id="Background">
	<rect style="fill:#F7F7F7;" width="1200" height="1200"/>
</g>
<g id="Graphic_Elements">
	<g>
		<polygon style="fill:#E62E2E;" points="344.927,273.601 377.856,256.202 347.332,234.864 372.325,207.252 336.343,197.641 
			350.384,163.146 313.286,166.421 314.682,129.204 280.941,144.971 269.525,109.52 243.211,135.876 220.358,106.468 
			204.645,140.234 173.113,120.416 169.896,157.52 133.487,149.682 143.154,185.648 106.26,190.735 127.646,221.226 94.716,238.625 
			125.241,259.963 100.248,287.575 136.23,297.186 122.188,331.681 159.287,328.406 157.891,365.622 191.632,349.856 
			203.048,385.307 229.362,358.951 252.215,388.359 267.928,354.593 299.461,374.411 302.677,337.307 339.086,345.145 
			329.419,309.179 366.313,304.092 		"/>
		<path style="fill:#34AD5C;" d="M967.162,330.144c91.382,0,165.461-74.08,165.461-165.462H801.701
			C801.701,256.065,875.78,330.144,967.162,330.144z"/>
		<polygon style="fill:#34AD5C;" points="92.772,688.828 140.607,719.942 188.442,688.828 236.279,719.942 284.116,688.828 
			331.958,719.942 379.801,688.828 379.801,516.49 331.958,547.603 284.116,516.49 236.279,547.603 188.442,516.49 140.607,547.603 
			92.772,516.49 		"/>
		<path style="fill:#017CF5;" d="M236.295,876.76c-93.297,0-168.918,75.621-168.918,168.918h102.932
			c0-36.442,29.543-65.969,65.986-65.969c36.426,0,65.969,29.527,65.969,65.969h102.932
			C405.196,952.382,329.575,876.76,236.295,876.76z"/>
		<polygon style="fill:#FCCA23;" points="602.985,851.285 456.966,1071.154 749.005,1071.154 		"/>
		<path style="fill:#E62E2E;" d="M967.162,885.085c0-82.463-64.054-68.847-30.143,6.407c-33.911-75.255-86.89-36.763-24.931,18.114
			c-61.959-54.877-94.701,1.835-15.408,26.688c-79.293-24.853-86.138,40.274-3.221,30.648c-82.917,9.626-62.681,71.906,9.523,29.308
			c-72.204,42.598-28.385,91.263,20.62,22.901c-49.006,68.362,10.818,94.997,28.152,12.534c-17.334,82.463,48.151,82.463,30.817,0
			c17.334,82.463,77.158,55.827,28.152-12.534c49.006,68.362,92.824,19.696,20.62-22.901c72.204,42.598,92.44-19.682,9.523-29.308
			c82.917,9.626,76.072-55.501-3.221-30.648c79.293-24.853,46.55-81.565-15.408-26.688c61.959-54.877,8.98-93.368-24.931-18.114
			C1031.216,816.237,967.162,802.622,967.162,885.085z"/>
		<path style="fill:#ED98A1;" d="M460.975,547.299v132.978c0,48.313,284.021,48.313,284.021,0V547.299
			C744.996,498.987,460.975,498.987,460.975,547.299z"/>
		<rect x="503.261" y="109.059" style="fill:#FCCA23;" width="199.449" height="276.708"/>
		<polygon style="fill:#017CF5;" points="967.162,480.478 826.991,582.318 880.531,747.099 1053.792,747.099 1107.333,582.318 		"/>
	</g>
</g>
</svg>
