<svg width="878" height="840" viewBox="0 0 878 840" fill="none" xmlns="http://www.w3.org/2000/svg">
<path id="Vector" d="M439.075 178.778C439.075 -82.6299 227.956 -39.4672 339.725 199.088C227.956 -39.4704 53.3401 82.5493 257.554 256.509C53.3401 82.5493 -54.5761 262.326 206.77 341.11C-54.5761 262.326 -77.1369 468.779 196.154 438.265C-77.1369 468.779 -10.44 666.206 227.541 531.171C-10.44 666.206 133.985 820.475 295.504 603.767C133.982 820.475 331.159 904.908 388.291 643.5C331.159 904.908 546.995 904.908 489.863 643.5C546.995 904.908 744.172 820.471 582.65 603.767C744.172 820.475 888.594 666.203 650.613 531.171C888.594 666.206 955.29 468.779 682 438.265C955.29 468.779 932.73 262.326 671.384 341.11C932.73 262.326 824.81 82.5493 620.6 256.509C824.814 82.5493 650.198 -39.4672 538.429 199.088C650.194 -39.4704 439.075 -82.6299 439.075 178.778Z" fill="#2C2B2B"/>
</svg>
