<svg width="947" height="511" viewBox="0 0 947 511" fill="none" xmlns="http://www.w3.org/2000/svg">
<path id="Vector" d="M0 465.312C0 490.164 20.1472 510.312 45 510.312L157.662 510.311L315.324 510.312H472.992H630.661H788.346H901.034C925.887 510.312 946.034 490.164 946.034 465.312V45.2231C946.034 9.87173 907.143 -11.675 877.171 7.07114L788.346 62.6283L647.042 7.40248C636.509 3.2858 624.812 3.286 614.279 7.40306L472.992 62.6283L331.706 7.40352C321.173 3.28618 309.475 3.28627 298.941 7.40375L157.662 62.6283L68.8656 7.08017C38.8941 -11.6691 0 9.87745 0 45.2303V465.312Z" fill="#FF1F1F"/>
</svg>
